<svg width="20" height="20" viewBox="0 0 20 20" fill="none" xmlns="http://www.w3.org/2000/svg">
<path d="M12.3752 10.3291C12.3752 11.3144 12.1759 12.1931 11.7773 12.9653C11.3788 13.7327 10.8107 14.3319 10.0731 14.763C9.33546 15.1988 8.49019 15.4167 7.53725 15.4167C6.85463 15.4167 6.20178 15.2793 5.5787 15.0045C4.95563 14.7298 4.41961 14.3603 3.97063 13.8961C3.52165 13.4319 3.1643 12.8776 2.89858 12.2334C2.63286 11.5892 2.5 10.9141 2.5 10.2083C2.5 9.50252 2.63286 8.8275 2.89858 8.18327C3.1643 7.53903 3.52165 6.9848 3.97063 6.52058C4.41961 6.05635 4.95563 5.68687 5.5787 5.41212C6.20178 5.13737 6.85463 5 7.53725 5C8.84754 5 9.97227 5.45475 10.9115 6.36426L9.54391 7.72141C9.00788 7.18613 8.339 6.91849 7.53725 6.91849C6.97374 6.91849 6.45146 7.06533 5.97041 7.35903C5.49395 7.65272 5.11598 8.053 4.83652 8.55986C4.55705 9.06198 4.41732 9.61147 4.41732 10.2083C4.41732 10.8052 4.55705 11.3571 4.83652 11.8639C5.11598 12.366 5.49395 12.7639 5.97041 13.0576C6.45146 13.3513 6.97374 13.4982 7.53725 13.4982C7.91751 13.4982 8.2657 13.4437 8.58181 13.3348C8.90251 13.2258 9.16594 13.0908 9.37211 12.9297C9.57827 12.7639 9.75695 12.5768 9.90813 12.3684C10.0639 12.16 10.1761 11.9634 10.2449 11.7786C10.3182 11.5939 10.3686 11.4186 10.3961 11.2528H7.53725V9.46226H12.2928C12.3477 9.76069 12.3752 10.0496 12.3752 10.3291ZM18.3333 9.46226V10.9544H16.8971V12.4395H15.4539V10.9544H14.0177V9.46226H15.4539V7.97721H16.8971V9.46226H18.3333Z" fill="#8D9293"/>
</svg>
