<svg width="82" height="82" viewBox="0 0 82 82" fill="none" xmlns="http://www.w3.org/2000/svg">
<path d="M14.4141 40.3592C15.298 40.3592 16.0156 39.6417 16.0156 38.7577C16.0156 37.8599 15.283 37.1561 14.4141 37.1561C13.5301 37.1561 12.8125 37.8737 12.8125 38.7577C12.8125 39.646 13.5363 40.3592 14.4141 40.3592Z" fill="#EA3E33"/>
<path d="M30.4296 81.9999C47.2084 81.9999 60.8592 68.3491 60.8592 51.5702C60.8592 45.1671 58.8134 38.8847 55.0742 33.7209C55.8637 32.9307 59.5686 29.2271 59.5955 29.1996C60.7003 28.0948 61.1507 26.5802 60.9493 25.1394C63.752 25.135 68.2339 25.1306 70.6887 25.1444H70.6975C71.1223 25.1444 71.5296 24.9761 71.8298 24.6758C72.1839 24.3211 81.204 15.3924 81.5305 15.0664C81.9885 14.6079 82.1255 13.9191 81.8777 13.321C81.63 12.7223 81.0463 12.3319 80.3982 12.3319H71.9331L75.6048 8.65956C76.2304 8.03458 76.2304 7.02047 75.6048 6.39486C74.9798 5.76925 73.9657 5.76925 73.3401 6.39486L69.6677 10.0666V1.60143C69.6677 0.953922 69.2774 0.369602 68.6787 0.121861C68.08 -0.125881 67.3912 0.0111277 66.9332 0.469075C64.7442 2.66059 57.7968 9.69745 57.3245 10.1698C57.0217 10.472 56.8528 10.883 56.8553 11.3109C56.8691 13.7639 56.8647 18.2427 56.8603 21.0454C55.3951 20.8402 53.9018 21.3025 52.8051 22.3992L48.2788 26.9249C43.1151 23.1862 36.8327 21.1405 30.4296 21.1405C13.6508 21.1405 0 34.7913 0 51.5702C0 68.3491 13.6508 81.9999 30.4296 81.9999ZM68.73 15.5338H76.5063C74.0214 17.9943 70.9321 21.0723 70.0412 21.9557C67.8291 21.9475 64.5434 21.9494 62.3306 21.9519L68.73 15.5338ZM66.4646 5.4871V13.2697L60.0446 19.6691C60.0471 17.2004 60.049 14.0799 60.0403 11.9584C61.3972 10.5883 63.8421 8.13405 66.4646 5.4871ZM55.0698 24.6639C55.701 24.0333 56.7051 24.0571 57.3239 24.6752C57.3245 24.6752 57.3245 24.6752 57.3245 24.6758C57.9489 25.3008 57.952 26.3137 57.3307 26.9349C57.3089 26.9574 31.2535 53.011 31.2441 53.0203C30.6267 53.6384 29.6157 53.6553 28.9794 53.0191C28.3563 52.3966 28.3501 51.385 28.9801 50.7556C29.4555 50.2802 54.5024 25.232 55.0698 24.6639ZM26.7147 55.2838C28.5953 57.1663 31.6376 57.1588 33.5045 55.2901C36.4286 52.366 39.3314 49.4631 40.973 47.8221C42.4062 51.8404 41.4447 56.4086 38.3398 59.5136C36.2259 61.6275 33.4112 62.7911 30.4127 62.7911C27.4148 62.7911 24.5995 61.6275 22.4862 59.5136C18.1126 55.1405 18.1126 48.0336 22.4862 43.66C25.5911 40.5557 30.1593 39.5935 34.1776 41.0274C29.8972 45.3084 26.716 48.4897 26.716 48.4897C24.8342 50.369 24.8379 53.4095 26.7147 55.2838ZM30.4296 24.3436C36.0751 24.3436 41.4159 26.024 45.9847 29.2202C44.8511 30.3545 43.6806 31.525 42.5026 32.7036C39.1431 30.5422 35.268 29.331 31.2085 29.1908C26.5471 29.0307 22.0001 30.3063 18.0588 32.8813C17.3187 33.3655 17.1104 34.3578 17.5946 35.0979C18.0782 35.8386 19.0704 36.0469 19.8111 35.5627C26.0053 31.5156 33.9637 31.3673 40.1734 35.0309C38.9673 36.2377 37.7749 37.4308 36.6256 38.5788C31.1572 35.965 24.5714 37.0448 20.2209 41.3953C14.5961 47.0201 14.5954 56.1534 20.2209 61.7789C22.9398 64.4972 26.559 65.9943 30.4127 65.9943C34.2664 65.9943 37.8862 64.4972 40.6045 61.7789C44.955 57.4284 46.0354 50.8426 43.421 45.3741C44.5715 44.223 45.7664 43.0275 46.9751 41.8194C51.3725 49.2116 50.2313 58.9499 44.0047 65.1766C40.2573 68.9227 35.3369 70.7958 30.4146 70.7952C25.4929 70.7952 20.57 68.9221 16.8232 65.1766C11.2954 59.6487 9.86021 51.6753 12.4246 44.8248C12.429 44.8136 12.4333 44.8017 12.4371 44.7904C12.4434 44.7723 12.449 44.7554 12.4565 44.7373C12.7781 43.9133 12.3714 42.9849 11.5475 42.6627C10.7229 42.3412 9.79452 42.7478 9.47296 43.5718C9.45357 43.6218 9.43605 43.6693 9.41853 43.7181C6.40811 51.7791 8.16481 61.0482 14.5579 67.4419C18.9297 71.8124 24.6721 73.9971 30.414 73.9971C36.1564 73.9971 41.8982 71.8118 46.2694 67.4419C53.7272 59.984 54.9272 48.2025 49.3011 39.494C50.4785 38.316 51.6477 37.1461 52.7794 36.015C65.1559 53.7073 52.6331 78.7967 30.4296 78.7967C15.4169 78.7967 3.20311 66.583 3.20311 51.5702C3.20311 36.5574 15.4169 24.3436 30.4296 24.3436Z" fill="#EA3E33"/>
</svg>
