<svg width="82" height="72" viewBox="0 0 82 72" fill="none" xmlns="http://www.w3.org/2000/svg">
<path d="M70.7891 29.5938C69.9051 29.5938 69.1875 30.3113 69.1875 31.1953C69.1875 32.0793 69.9051 32.7969 70.7891 32.7969C71.673 32.7969 72.3906 32.0793 72.3906 31.1953C72.3906 30.3113 71.673 29.5938 70.7891 29.5938Z" fill="#EA3E33"/>
<path d="M44.2031 13.5781C45.0871 13.5781 45.8047 12.8605 45.8047 11.9766C45.8047 11.0926 45.0871 10.375 44.2031 10.375C43.3191 10.375 42.6016 11.0926 42.6016 11.9766C42.6016 12.8605 43.3191 13.5781 44.2031 13.5781Z" fill="#EA3E33"/>
<path d="M77.1951 19.9844H55.4139V5.57031C55.4139 2.92085 53.2587 0.765625 50.6092 0.765625H4.80467C2.15522 0.765625 0 2.92085 0 5.57031V37.6016C0 40.251 2.15522 42.4063 4.80467 42.4063H9.60935V50.4141C9.60935 51.8486 11.3429 52.5468 12.3433 51.5464L21.4834 42.4063H26.5859V56.8203C26.5859 59.4698 28.7411 61.625 31.3905 61.625H60.5164L69.6565 70.7652C70.6581 71.7668 72.3904 71.0642 72.3904 69.6328V61.625H77.1951C79.8445 61.625 81.9997 59.4698 81.9997 56.8203V24.7891C81.9997 22.1396 79.8445 19.9844 77.1951 19.9844ZM11.2109 23.1856H26.8611C26.6835 23.6874 26.5859 24.226 26.5859 24.7872V29.5938H11.2109C10.3263 29.5938 9.60935 30.3107 9.60935 31.1953C9.60935 32.0799 10.3263 32.7969 11.2109 32.7969H26.5859V39.2031H20.8202C20.3955 39.2031 19.9882 39.372 19.6879 39.6723L12.8125 46.5472V40.8047C12.8125 39.9201 12.0955 39.2031 11.2109 39.2031H4.80467C3.92131 39.2031 3.20312 38.4849 3.20312 37.6016V5.57031C3.20312 4.68695 3.92131 3.96875 4.80467 3.96875H50.6092C51.4926 3.96875 52.2108 4.68695 52.2108 5.57031V19.9844C49.9573 19.9844 13.4675 19.9844 11.2109 19.9844C10.3263 19.9844 9.60935 20.7013 9.60935 21.5859C9.60935 22.4706 10.3263 23.1856 11.2109 23.1856ZM78.7966 56.8203C78.7966 57.7037 78.0784 58.4219 77.1951 58.4219H70.7888C69.9042 58.4219 69.1873 59.1388 69.1873 60.0234V65.7659L62.3119 58.8911C62.0116 58.5908 61.6043 58.4219 61.1795 58.4219H31.3905C30.5072 58.4219 29.789 57.7031 29.789 56.8203V24.7891C29.789 23.9057 30.5072 23.1875 31.3905 23.1875H77.1951C78.0784 23.1875 78.7966 23.9057 78.7966 24.7891V56.8203Z" fill="#EA3E33"/>
<path d="M11.2109 13.5781H37.7968C38.6814 13.5781 39.3983 12.8612 39.3983 11.9766C39.3983 11.0919 38.6814 10.375 37.7968 10.375H11.2109C10.3263 10.375 9.60938 11.0919 9.60938 11.9766C9.60938 12.8612 10.3263 13.5781 11.2109 13.5781Z" fill="#EA3E33"/>
<path d="M37.7969 32.7969H64.3827C65.2673 32.7969 65.9843 32.0799 65.9843 31.1953C65.9843 30.3107 65.2673 29.5938 64.3827 29.5938H37.7969C36.9123 29.5938 36.1953 30.3107 36.1953 31.1953C36.1953 32.0799 36.9123 32.7969 37.7969 32.7969Z" fill="#EA3E33"/>
<path d="M70.789 39.2031H37.7969C36.9123 39.2031 36.1953 39.9201 36.1953 40.8047C36.1953 41.6893 36.9123 42.4062 37.7969 42.4062H70.789C71.6736 42.4062 72.3905 41.6893 72.3905 40.8047C72.3905 39.9201 71.6736 39.2031 70.789 39.2031Z" fill="#EA3E33"/>
<path d="M70.789 48.8125H37.7969C36.9123 48.8125 36.1953 49.5294 36.1953 50.4141C36.1953 51.2987 36.9123 52.0156 37.7969 52.0156H70.789C71.6736 52.0156 72.3905 51.2987 72.3905 50.4141C72.3905 49.5294 71.6736 48.8125 70.789 48.8125Z" fill="#EA3E33"/>
</svg>
