<svg width="24" height="24" viewBox="0 0 24 24" fill="none" xmlns="http://www.w3.org/2000/svg">
<path d="M12 0.00233361C5.51461 -0.125529 0.148078 5.01691 0 11.5012C0.0169219 14.802 1.47862 17.9298 3.99998 20.0604V23.5C3.99998 23.7761 4.22386 24 4.5 24C4.5937 24 4.68553 23.9737 4.76498 23.924L7.55198 22.1832C8.97192 22.7262 10.4797 23.0032 12 23.0001C18.4854 23.128 23.8519 17.9855 24 11.5012C23.8519 5.01691 18.4854 -0.125529 12 0.00233361Z" fill="#2196F3"/>
<path d="M19.8998 8.20149C19.751 8.00211 19.4783 7.94244 19.2598 8.06149L14.0598 10.8962L10.8249 8.12247C10.6265 7.95242 10.3306 7.96372 10.1459 8.14848L4.14587 14.1479C3.9512 14.3437 3.95214 14.6603 4.14803 14.8549C4.30464 15.0106 4.54478 15.0451 4.73889 14.9398L9.93887 12.1051L13.1769 14.8798C13.3752 15.0499 13.6711 15.0386 13.8558 14.8538L19.8558 8.8544C20.0307 8.67793 20.0494 8.39985 19.8998 8.20149Z" fill="#FAFAFA"/>
</svg>
