<svg width="36" height="36" viewBox="0 0 36 36" fill="none" xmlns="http://www.w3.org/2000/svg">
<path d="M35.6886 34.1641L26.9381 25.4155C29.2854 22.7175 30.7066 19.1973 30.7066 15.3499C30.7066 6.88071 23.8164 0 15.3533 0C6.88224 0 0 6.88869 0 15.3499C0 23.8111 6.89022 30.6998 15.3533 30.6998C19.2016 30.6998 22.7226 29.2789 25.4212 26.9321L34.1717 35.6807C34.3792 35.8882 34.6587 36 34.9301 36C35.2016 36 35.481 35.8962 35.6886 35.6807C36.1038 35.2656 36.1038 34.5792 35.6886 34.1641ZM2.1477 15.3499C2.1477 8.07007 8.07186 2.15521 15.3453 2.15521C22.6267 2.15521 28.5429 8.07805 28.5429 15.3499C28.5429 22.6217 22.6267 28.5525 15.3453 28.5525C8.07186 28.5525 2.1477 22.6297 2.1477 15.3499Z" fill="white"/>
</svg>
