<svg width="180" height="92" viewBox="0 0 180 92" fill="none" xmlns="http://www.w3.org/2000/svg">
<path fill-rule="evenodd" clip-rule="evenodd" d="M180 89.8459C180 40.646 139.706 0.761719 90 0.761719C40.2939 0.761719 0 40.646 0 89.8459H23.04C23.04 53.2415 53.0195 23.5674 90 23.5674C126.981 23.5674 156.96 53.2415 156.96 89.8459H180Z" fill="#FFB800"/>
<mask id="mask0" mask-type="alpha" maskUnits="userSpaceOnUse" x="0" y="0" width="180" height="90">
<path fill-rule="evenodd" clip-rule="evenodd" d="M180 89.8459C180 40.646 139.706 0.761719 90 0.761719C40.2939 0.761719 0 40.646 0 89.8459H23.04C23.04 53.2415 53.0195 23.5674 90 23.5674C126.981 23.5674 156.96 53.2415 156.96 89.8459H180Z" fill="#C4C4C4"/>
</mask>
<g mask="url(#mask0)">
<path fill-rule="evenodd" clip-rule="evenodd" d="M153.64 152.838C188.787 118.048 188.787 61.6434 153.64 26.8539C118.492 -7.93568 61.5078 -7.93568 26.3604 26.8539L153.64 152.838ZM34.957 160.339L18.7812 144.329C21.0938 147.283 23.6201 150.126 26.3604 152.838C29.0996 155.55 31.9727 158.05 34.957 160.339Z" fill="#4CAF50"/>
<path fill-rule="evenodd" clip-rule="evenodd" d="M26.3595 152.838C61.507 187.627 118.491 187.627 153.639 152.838C188.786 118.048 188.786 61.6436 153.639 26.854L26.3595 152.838Z" fill="#EA3E33"/>
</g>
<path d="M75.5996 69.9972C80.3516 78.1441 84.8149 83.6581 86.9973 82.411C89.1796 81.1638 87.1867 74.8964 82.1467 66.2557C78.1147 59.3431 63.444 37.9921 56.6126 28.1806C60.9616 38.7249 70.8476 61.8502 75.5996 69.9972Z" fill="#040404"/>
<ellipse rx="2.8727" ry="2.85805" transform="matrix(0.868226 -0.49617 0.50384 0.863797 89.6978 87.0398)" fill="#EA3E33"/>
</svg>
