<svg width="82" height="82" viewBox="0 0 82 82" fill="none" xmlns="http://www.w3.org/2000/svg">
<path d="M80.3984 78.797H73.3515V66.1447C73.3515 65.2601 72.6344 64.5431 71.75 64.5431C70.8656 64.5431 70.1484 65.2601 70.1484 66.1447V78.797H50.9297V48.3673C50.9297 47.4828 50.2126 46.7657 49.3282 46.7657H32.672C31.7876 46.7657 31.0704 47.4828 31.0704 48.3673V78.797H11.8517V42.6015H12.468C12.8927 42.6015 13.3 42.4327 13.6005 42.1324L41.0001 14.7327L68.3997 42.1324C68.7001 42.4327 69.1074 42.6015 69.5322 42.6015H70.1484V54.6132C70.1484 55.4978 70.8656 56.2148 71.75 56.2148C72.6344 56.2148 73.3515 55.4978 73.3515 54.6132V42.6015H80.3984C81.0462 42.6015 81.6302 42.2112 81.8781 41.6129C82.126 41.0145 81.9887 40.3255 81.5309 39.8675L42.1325 0.469058C41.507 -0.156353 40.4932 -0.156353 39.8675 0.469058L24.8128 15.5237C24.1874 16.1492 24.1874 17.1633 24.8128 17.7887C25.4384 18.4142 26.4525 18.4142 27.0779 17.7887L41.0001 3.86645L76.5318 39.3984H70.1955L42.1325 11.3353C41.507 10.7099 40.4932 10.7099 39.8675 11.3353L11.8045 39.3984H5.46825L18.1092 26.7576C18.7346 26.1322 18.7346 25.1181 18.1092 24.4925C17.4838 23.8672 16.4697 23.8671 15.8441 24.4925L0.469144 39.8675C0.0112583 40.3255 -0.125995 41.0144 0.121926 41.6129C0.369847 42.2114 0.953935 42.6015 1.60177 42.6015H8.64862V78.7968H1.60177C0.717385 78.7968 0.000207575 79.5139 0.000207575 80.3984C0.000207575 81.2829 0.717385 82 1.60177 82H10.2502H32.672H49.3282H71.75H80.3984C81.2828 82 82 81.2829 82 80.3984C82 79.5139 81.2828 78.797 80.3984 78.797ZM47.7266 78.797H34.2735V49.9689H47.7266V78.797Z" fill="#EA3E33"/>
<path d="M65.0234 46.7657H56.0547C55.1703 46.7657 54.4531 47.4828 54.4531 48.3673V64.3829C54.4531 65.2675 55.1703 65.9845 56.0547 65.9845H65.0234C65.9078 65.9845 66.625 65.2675 66.625 64.3829V48.3673C66.625 47.4828 65.9078 46.7657 65.0234 46.7657ZM63.4218 62.7814H57.6562V49.9689H63.4218V62.7814Z" fill="#EA3E33"/>
<path d="M25.9453 46.7657H16.9766C16.0922 46.7657 15.375 47.4828 15.375 48.3673V64.3829C15.375 65.2675 16.0922 65.9845 16.9766 65.9845H25.9453C26.8297 65.9845 27.5468 65.2675 27.5468 64.3829V48.3673C27.5468 47.4828 26.8297 46.7657 25.9453 46.7657ZM24.3437 62.7814H18.5781V49.9689H24.3437V62.7814Z" fill="#EA3E33"/>
<path d="M41 26.317C36.9378 26.317 33.6328 29.622 33.6328 33.6842C33.6328 37.7464 36.9378 41.0514 41 41.0514C45.0622 41.0514 48.3671 37.7464 48.3671 33.6842C48.3671 29.622 45.0622 26.317 41 26.317ZM41 37.8483C38.7038 37.8483 36.8359 35.9802 36.8359 33.6842C36.8359 31.3882 38.7038 29.5201 41 29.5201C43.2961 29.5201 45.164 31.3882 45.164 33.6842C45.164 35.9802 43.2961 37.8483 41 37.8483Z" fill="#EA3E33"/>
<path d="M39.0892 63.2506C38.7914 62.9527 38.3781 62.7814 37.957 62.7814C37.5358 62.7814 37.1226 62.9527 36.8247 63.2506C36.5268 63.5485 36.3555 63.9617 36.3555 64.3829C36.3555 64.8041 36.5267 65.2173 36.8247 65.5152C37.1228 65.8131 37.5358 65.9845 37.957 65.9845C38.3782 65.9845 38.7914 65.8131 39.0892 65.5152C39.3871 65.2173 39.5586 64.8041 39.5586 64.3829C39.5586 63.9617 39.3872 63.5485 39.0892 63.2506Z" fill="#EA3E33"/>
<path d="M22.4329 20.1686C22.1352 19.8707 21.722 19.6993 21.3008 19.6993C20.8796 19.6993 20.4664 19.8707 20.1685 20.1686C19.8706 20.4665 19.6992 20.8797 19.6992 21.3009C19.6992 21.7221 19.8704 22.1353 20.1685 22.4332C20.4665 22.7311 20.8796 22.9025 21.3008 22.9025C21.722 22.9025 22.1352 22.7311 22.4329 22.4332C22.7308 22.1353 22.9023 21.7221 22.9023 21.3009C22.9023 20.8797 22.731 20.4665 22.4329 20.1686Z" fill="#EA3E33"/>
<path d="M72.8821 58.8189C72.5844 58.5212 72.171 58.3497 71.75 58.3497C71.3288 58.3497 70.9156 58.521 70.6177 58.8189C70.3198 59.1184 70.1484 59.53 70.1484 59.9512C70.1484 60.3725 70.3196 60.7857 70.6177 61.0851C70.9156 61.383 71.3288 61.5528 71.75 61.5528C72.1712 61.5528 72.5844 61.383 72.8821 61.0851C73.18 60.7857 73.3516 60.3741 73.3516 59.9512C73.3516 59.53 73.1802 59.1168 72.8821 58.8189Z" fill="#EA3E33"/>
</svg>
