<svg width="62" height="82" viewBox="0 0 62 82" fill="none" xmlns="http://www.w3.org/2000/svg">
<path d="M34.2031 25.625C35.0871 25.625 35.8047 24.9074 35.8047 24.0234C35.8047 23.1395 35.0871 22.4219 34.2031 22.4219C33.3191 22.4219 32.6016 23.1395 32.6016 24.0234C32.6016 24.9074 33.3191 25.625 34.2031 25.625Z" fill="#EA3E33"/>
<path d="M27.7969 25.625C28.6809 25.625 29.3984 24.9074 29.3984 24.0234C29.3984 23.1395 28.6809 22.4219 27.7969 22.4219C26.9129 22.4219 26.1953 23.1395 26.1953 24.0234C26.1953 24.9074 26.9129 25.625 27.7969 25.625Z" fill="#EA3E33"/>
<path d="M14.9844 12.8125C14.1004 12.8125 13.3828 13.5301 13.3828 14.4141C13.3828 15.298 14.1004 16.0156 14.9844 16.0156C15.8684 16.0156 16.5859 15.298 16.5859 14.4141C16.5859 13.5301 15.8684 12.8125 14.9844 12.8125Z" fill="#EA3E33"/>
<path d="M61.4295 30.4297C61.4295 13.6508 47.7787 0 30.9999 0C14.2211 0 0.570312 13.6508 0.570312 30.4297C0.570312 47.0684 14.0991 60.8594 30.9999 60.8594C47.8269 60.8594 61.4295 47.1523 61.4295 30.4297ZM30.9999 57.6562C25.9537 57.6562 21.0621 56.2724 16.7892 53.6448C17.9428 46.7375 23.8886 41.6406 30.9999 41.6406C38.1112 41.6406 44.057 46.7375 45.2106 53.6448C40.9377 56.2724 36.0461 57.6562 30.9999 57.6562ZM19.789 27.2266C19.789 21.0449 24.8183 16.0156 30.9999 16.0156C37.1815 16.0156 42.2108 21.0449 42.2108 27.2266C42.2108 33.4082 37.1815 38.4375 30.9999 38.4375C24.8183 38.4375 19.789 33.4082 19.789 27.2266ZM48.0565 51.636C46.6827 46.3196 42.904 41.986 37.9366 39.8583C42.3897 37.4027 45.4139 32.6612 45.4139 27.2266C45.4139 19.2788 38.9476 12.8125 30.9999 12.8125C23.0522 12.8125 16.5859 19.2788 16.5859 27.2266C16.5859 32.6612 19.6101 37.4027 24.0632 39.8583C19.0958 41.986 15.3172 46.3189 13.9433 51.636C7.53396 46.4797 3.77343 38.7215 3.77343 30.4297C3.77343 15.4169 15.9872 3.20312 30.9999 3.20312C46.0126 3.20312 58.2264 15.4169 58.2264 30.4297C58.2264 38.7215 54.4658 46.4797 48.0565 51.636Z" fill="#EA3E33"/>
<path d="M31.1599 6.42065C27.0903 6.4 23.0308 7.40661 19.4723 9.351C18.6966 9.77454 18.4107 10.748 18.8354 11.5237C19.259 12.3001 20.2324 12.586 21.0082 12.1612C24.1838 10.4264 27.6853 9.60187 31.1599 9.63566C36.5051 9.68821 41.7878 11.774 45.721 15.7078C46.3466 16.3334 47.3601 16.3341 47.9863 15.7085C48.6113 15.0828 48.6119 14.0687 47.9863 13.4431C43.3943 8.85052 37.3603 6.45255 31.1599 6.42065Z" fill="#EA3E33"/>
<path d="M34.3956 30.6236C33.4904 31.5295 32.2842 32.0281 30.9992 32.0281C29.7142 32.0281 28.508 31.5295 27.6028 30.6236C26.9778 29.998 25.9637 29.998 25.3374 30.623C24.7118 31.248 24.7118 32.2621 25.3368 32.8883C26.847 34.3992 28.8577 35.2312 30.9992 35.2312C33.1407 35.2312 35.1514 34.3992 36.6616 32.8883C37.2866 32.2621 37.2866 31.2486 36.661 30.623C36.0347 29.998 35.0212 29.9986 34.3956 30.6236Z" fill="#EA3E33"/>
<path d="M50.2186 68.2266H11.7812C10.8966 68.2266 10.1797 68.9435 10.1797 69.8281C10.1797 70.7127 10.8966 71.4297 11.7812 71.4297H50.2186C51.1032 71.4297 51.8202 70.7127 51.8202 69.8281C51.8202 68.9435 51.1032 68.2266 50.2186 68.2266Z" fill="#EA3E33"/>
<path d="M50.2186 78.7969H11.7812C10.8966 78.7969 10.1797 79.5138 10.1797 80.3984C10.1797 81.2831 10.8966 82 11.7812 82H50.2186C51.1032 82 51.8202 81.2831 51.8202 80.3984C51.8202 79.5138 51.1032 78.7969 50.2186 78.7969Z" fill="#EA3E33"/>
</svg>
