<svg width="176" height="176" viewBox="0 0 176 176" fill="none" xmlns="http://www.w3.org/2000/svg">
<path fill-rule="evenodd" clip-rule="evenodd" d="M0 88L23 88.0005C23 52.102 52.1016 23.0005 88 23.0005C123.898 23.0005 153 52.102 153 88.0005L176 88C176 39.3989 136.601 0 88 0C39.3994 0 0 39.3989 0 88Z" fill="#F4F4F4"/>
<path fill-rule="evenodd" clip-rule="evenodd" d="M0 87.999C0 39.3984 39.3994 0 88 0C136.601 0 176 39.3984 176 87.999L153.001 87.9995C153.001 52.1016 123.899 23 88.001 23C52.1025 23 23.001 52.1016 23.001 87.9995L0 87.999Z" fill="#EA3E33"/>
</svg>
