<svg width="21" height="24" viewBox="0 0 21 24" fill="none" xmlns="http://www.w3.org/2000/svg">
<path d="M10.4105 12.9319C10.436 12.9319 10.4616 12.9319 10.4923 12.9319C10.5025 12.9319 10.5127 12.9319 10.5229 12.9319C10.5383 12.9319 10.5587 12.9319 10.5741 12.9319C12.072 12.907 13.2837 12.3951 14.1784 11.416C16.1467 9.25906 15.8195 5.5614 15.7837 5.20853C15.6559 2.55954 14.3676 1.29219 13.3042 0.700766C12.5117 0.258439 11.5863 0.0198799 10.5536 0H10.5178C10.5127 0 10.5025 0 10.4974 0H10.4667C9.89921 0 8.78468 0.0894595 7.71616 0.680886C6.64252 1.27231 5.33372 2.53966 5.2059 5.20853C5.17011 5.5614 4.84291 9.25906 6.81124 11.416C7.70082 12.3951 8.91249 12.907 10.4105 12.9319ZM6.57095 5.33278C6.57095 5.31787 6.57606 5.30296 6.57606 5.29302C6.74477 1.72955 9.34705 1.34686 10.4616 1.34686H10.482C10.4923 1.34686 10.5076 1.34686 10.5229 1.34686C11.9033 1.37668 14.25 1.92338 14.4085 5.29302C14.4085 5.30793 14.4085 5.32284 14.4136 5.33278C14.4187 5.36757 14.7766 8.74715 13.1508 10.5264C12.5066 11.2321 11.6477 11.58 10.5178 11.59C10.5076 11.59 10.5025 11.59 10.4923 11.59C10.482 11.59 10.4769 11.59 10.4667 11.59C9.34194 11.58 8.47792 11.2321 7.83886 10.5264C6.21818 8.75709 6.56584 5.3626 6.57095 5.33278Z" fill="white"/>
<path d="M20.9986 19.0648C20.9986 19.0598 20.9986 19.0549 20.9986 19.0499C20.9986 19.0101 20.9935 18.9704 20.9935 18.9256C20.9628 17.9416 20.8963 15.6405 18.6775 14.9049C18.6621 14.9 18.6417 14.895 18.6264 14.89C16.3206 14.3185 14.4034 13.0263 14.3829 13.0114C14.0711 12.7977 13.6416 12.8722 13.4218 13.1754C13.202 13.4785 13.2786 13.896 13.5905 14.1097C13.6774 14.1694 15.7122 15.5461 18.2583 16.1822C19.4495 16.5947 19.5824 17.8322 19.6182 18.9654C19.6182 19.0101 19.6182 19.0499 19.6233 19.0896C19.6284 19.5369 19.5977 20.2278 19.5159 20.6254C18.6877 21.0826 15.4412 22.6631 10.5025 22.6631C5.58428 22.6631 2.31737 21.0776 1.48403 20.6204C1.40223 20.2228 1.36644 19.532 1.37666 19.0847C1.37666 19.0449 1.38178 19.0052 1.38178 18.9604C1.41756 17.8273 1.55049 16.5897 2.74171 16.1772C5.28775 15.5411 7.32254 14.1594 7.40945 14.1048C7.72132 13.891 7.79801 13.4736 7.57817 13.1704C7.35833 12.8672 6.92887 12.7927 6.61701 13.0064C6.59656 13.0213 4.68959 14.3135 2.37361 14.885C2.35316 14.89 2.33782 14.895 2.32248 14.9C0.103642 15.6405 0.0371793 17.9416 0.0065041 18.9207C0.0065041 18.9654 0.00650398 19.0052 0.00139145 19.0449C0.00139145 19.0499 0.00139145 19.0549 0.00139145 19.0598C-0.00372108 19.3183 -0.00883351 20.6452 0.262131 21.3112C0.313256 21.4404 0.405282 21.5498 0.527983 21.6243C0.681359 21.7237 4.35727 24 10.5076 24C16.658 24 20.3339 21.7188 20.4873 21.6243C20.6049 21.5498 20.702 21.4404 20.7532 21.3112C21.0088 20.6502 21.0037 19.3232 20.9986 19.0648Z" fill="white"/>
</svg>
