<svg width="24" height="24" viewBox="0 0 24 24" fill="none" xmlns="http://www.w3.org/2000/svg">
<path d="M22.9008 13.207C22.9513 12.7874 22.9766 12.3651 22.9766 11.9424C22.9381 5.85731 18.002 0.952034 11.9429 0.97754C11.5225 0.981908 11.1026 1.01169 10.6857 1.06674C7.41436 -0.986112 3.10532 0.013047 1.06126 3.29847C-0.367573 5.59502 -0.35256 8.51245 1.09989 10.794C1.0498 11.2133 1.02477 11.6353 1.02506 12.0576C1.06299 18.1427 5.99862 23.0485 12.0577 23.0235C12.4785 23.0191 12.8987 22.9893 13.3159 22.9343C16.5878 24.9862 20.8966 23.9859 22.9398 20.6998C24.3674 18.4039 24.3522 15.4879 22.9008 13.207ZM12.0417 20.0212C8.16827 20.0413 6.04296 17.7355 6.03698 16.545V16.0439C6.03085 15.2138 6.69594 14.5359 7.52249 14.5297C8.3062 14.5238 8.96171 15.1261 9.02536 15.9106C9.41549 16.6812 10.7995 17.0209 12.0287 17.0129C12.1514 17.0129 15.0221 16.9739 15.0111 14.9927C15.0111 14.0358 13.7379 13.651 11.6495 13.1298C9.1371 12.5015 6.01396 11.7219 5.996 8.52424C5.97407 4.48181 9.10712 3.99883 11.4599 3.98577C14.7946 3.96872 16.9548 5.3346 16.9658 7.46402C16.9725 8.29417 16.308 8.97264 15.4814 8.97945C14.726 8.9857 14.0844 8.4256 13.9853 7.67347C13.2372 7.14108 12.3223 6.89898 11.41 6.99203C10.8156 6.95286 10.2193 7.02628 9.65192 7.20849C9.3406 7.34776 8.98439 7.62133 8.98837 8.51118C8.98837 9.25472 10.494 9.66657 12.0815 10.1025C14.7107 10.823 17.9825 11.7208 17.9995 14.9776C18.0184 18.019 15.6796 19.9981 12.0426 20.0171L12.0417 20.0212Z" fill="#2196F3"/>
</svg>
