<svg width="82" height="82" viewBox="0 0 82 82" fill="none" xmlns="http://www.w3.org/2000/svg">
<path d="M69.9913 12.0085C62.2475 4.2648 51.9515 0 41 0C30.0484 0 19.7522 4.2648 12.0085 12.0085C4.26464 19.7524 0 30.0485 0 41C0 51.9515 4.26464 62.2475 12.0085 69.9913C19.7524 77.7352 30.0484 82 41 82C51.9515 82 62.2475 77.7352 69.9913 69.9913C77.7352 62.2475 82 51.9515 82 41C82 30.0485 77.7352 19.7526 69.9913 12.0085ZM41 77.1953C21.0418 77.1953 4.80469 60.9582 4.80469 41C4.80469 21.0418 21.0418 4.80469 41 4.80469C60.9582 4.80469 77.1953 21.0418 77.1953 41C77.1953 60.9582 60.9582 77.1953 41 77.1953Z" fill="#3BB6D5"/>
<path d="M60.5879 27.8447C59.6498 26.9069 58.1287 26.9069 57.1906 27.8449L35.9765 49.059L24.8093 37.8918C23.8713 36.9538 22.3501 36.9538 21.4119 37.8918C20.4737 38.8299 20.4737 40.351 21.4119 41.2892L34.2777 54.1551C34.7468 54.6242 35.3617 54.8586 35.9763 54.8586C36.591 54.8586 37.206 54.624 37.675 54.1551L60.5879 31.2421C61.5261 30.3041 61.5261 28.7829 60.5879 27.8447Z" fill="#3BB6D5"/>
</svg>
