<svg width="22" height="20" viewBox="0 0 22 20" fill="none" xmlns="http://www.w3.org/2000/svg">
<path d="M0.388585 9.58993L5.45783 11.5654L7.41994 18.154C7.54549 18.576 8.03968 18.732 8.3677 18.4519L11.1934 16.0467C11.4896 15.7948 11.9115 15.7822 12.221 16.0168L17.3175 19.8803C17.6684 20.1466 18.1656 19.9458 18.2536 19.5031L21.987 0.751873C22.0831 0.268259 21.628 -0.135187 21.187 0.0429145L0.382645 8.42278C-0.130762 8.62951 -0.126289 9.38847 0.388585 9.58993ZM7.10373 10.5138L17.0109 4.14268C17.189 4.02852 17.3722 4.2799 17.2193 4.42798L9.04296 12.3637C8.75556 12.643 8.57018 13.0168 8.51767 13.4225L8.23915 15.5777C8.20226 15.8654 7.81513 15.894 7.73909 15.6155L6.66791 11.6856C6.54522 11.2373 6.72401 10.7585 7.10373 10.5138Z" fill="white"/>
</svg>
