<svg width="24" height="24" viewBox="0 0 24 24" fill="none" xmlns="http://www.w3.org/2000/svg">
<path d="M11.9936 5.77182e-06C5.37007 0.00141192 0.00178953 5.37479 0.00319495 12.0017C0.00366342 14.2964 0.661822 16.5429 1.89953 18.4747L0.0336457 23.3184C-0.0657175 23.576 0.0624569 23.8655 0.31993 23.9649C0.377505 23.9871 0.438641 23.9985 0.500339 23.9984C0.557586 23.9987 0.614412 23.9889 0.66824 23.9694L5.66531 22.1845C11.2875 25.6879 18.6839 23.9679 22.1855 18.3427C25.687 12.7174 23.9679 5.31728 18.3456 1.8139C16.4398 0.626259 14.2389 -0.0021972 11.9936 5.77182e-06Z" fill="#4CAF50"/>
<path d="M17.7113 14.05C17.7113 14.05 16.487 13.4501 15.7204 13.0501C14.853 12.6032 13.8336 13.4401 13.3539 13.9161C12.6073 13.6291 11.9253 13.196 11.348 12.6422C10.7944 12.0646 10.3615 11.3824 10.0748 10.6353C10.5505 10.1543 11.385 9.1354 10.9403 8.26748C10.5455 7.49953 9.94089 6.27561 9.94089 6.27463C9.85605 6.10617 9.6837 5.99982 9.49514 5.99963H8.49574C7.04029 6.25115 5.98205 7.52175 5.99723 8.99943C5.99723 10.5693 7.87511 13.5851 9.14139 14.853C10.4077 16.1209 13.4219 17.9988 14.9919 17.9988C16.4688 18.014 17.7388 16.9552 17.9902 15.499V14.4991C17.9903 14.3084 17.8822 14.1343 17.7113 14.05Z" fill="#FAFAFA"/>
</svg>
