<svg width="20" height="20" viewBox="0 0 20 20" fill="none" xmlns="http://www.w3.org/2000/svg">
<path d="M12.4997 3.33331H7.49967C5.19884 3.33331 3.33301 5.19915 3.33301 7.49998V12.5C3.33301 14.8008 5.19884 16.6666 7.49967 16.6666H12.4997C14.8005 16.6666 16.6663 14.8008 16.6663 12.5V7.49998C16.6663 5.19915 14.8005 3.33331 12.4997 3.33331ZM15.4163 12.5C15.4163 14.1083 14.108 15.4166 12.4997 15.4166H7.49967C5.89134 15.4166 4.58301 14.1083 4.58301 12.5V7.49998C4.58301 5.89165 5.89134 4.58331 7.49967 4.58331H12.4997C14.108 4.58331 15.4163 5.89165 15.4163 7.49998V12.5Z" fill="#8D9293"/>
<path d="M9.99935 6.66663C8.15852 6.66663 6.66602 8.15913 6.66602 9.99996C6.66602 11.8408 8.15852 13.3333 9.99935 13.3333C11.8402 13.3333 13.3327 11.8408 13.3327 9.99996C13.3327 8.15913 11.8402 6.66663 9.99935 6.66663ZM9.99935 12.0833C8.85102 12.0833 7.91602 11.1483 7.91602 9.99996C7.91602 8.85079 8.85102 7.91663 9.99935 7.91663C11.1477 7.91663 12.0827 8.85079 12.0827 9.99996C12.0827 11.1483 11.1477 12.0833 9.99935 12.0833Z" fill="#8D9293"/>
<path d="M13.5828 6.86099C13.8281 6.86099 14.027 6.66213 14.027 6.41682C14.027 6.17152 13.8281 5.97266 13.5828 5.97266C13.3375 5.97266 13.1387 6.17152 13.1387 6.41682C13.1387 6.66213 13.3375 6.86099 13.5828 6.86099Z" fill="#8D9293"/>
</svg>
