<svg width="20" height="20" viewBox="0 0 20 20" fill="none" xmlns="http://www.w3.org/2000/svg">
<path d="M6.31467 6.66669H3.33301V15.8334H6.31467V6.66669Z" fill="#8D9293"/>
<path d="M14.4367 6.77419C14.405 6.76419 14.375 6.75335 14.3417 6.74419C14.3017 6.73502 14.2617 6.72752 14.2208 6.72085C14.0625 6.68919 13.8892 6.66669 13.6858 6.66669C11.9475 6.66669 10.845 7.93085 10.4817 8.41919V6.66669H7.5V15.8334H10.4817V10.8334C10.4817 10.8334 12.735 7.69502 13.6858 10C13.6858 12.0575 13.6858 15.8334 13.6858 15.8334H16.6667V9.64752C16.6667 8.26252 15.7175 7.10835 14.4367 6.77419Z" fill="#8D9293"/>
<path d="M4.79134 5.41667C5.59676 5.41667 6.24967 4.76375 6.24967 3.95833C6.24967 3.15292 5.59676 2.5 4.79134 2.5C3.98593 2.5 3.33301 3.15292 3.33301 3.95833C3.33301 4.76375 3.98593 5.41667 4.79134 5.41667Z" fill="#8D9293"/>
</svg>
