<svg width="20" height="20" viewBox="0 0 20 20" fill="none" xmlns="http://www.w3.org/2000/svg">
<path d="M16.6663 6.18385C16.1705 6.38462 15.6422 6.51769 15.0913 6.58231C15.658 6.27 16.0905 5.77923 16.2938 5.18769C15.7655 5.47846 15.1822 5.68385 14.5605 5.79846C14.0588 5.30538 13.3438 5 12.5638 5C11.0505 5 9.83217 6.13385 9.83217 7.52385C9.83217 7.72385 9.85051 7.91615 9.89551 8.09923C7.62301 7.99692 5.61217 6.99154 4.26134 5.46C4.02551 5.83769 3.88717 6.27 3.88717 6.73538C3.88717 7.60923 4.37467 8.38385 5.10134 8.83231C4.66217 8.82462 4.23134 8.70692 3.86634 8.52154C3.86634 8.52923 3.86634 8.53923 3.86634 8.54923C3.86634 9.77538 4.81384 10.7938 6.05634 11.0285C5.83384 11.0846 5.59134 11.1115 5.33967 11.1115C5.16467 11.1115 4.98801 11.1023 4.82217 11.0685C5.17634 12.0677 6.18134 12.8023 7.37634 12.8262C6.44634 13.4977 5.26551 13.9023 3.98717 13.9023C3.76301 13.9023 3.54801 13.8931 3.33301 13.8677C4.54384 14.5885 5.97884 15 7.52634 15C12.5563 15 15.3063 11.1538 15.3063 7.82C15.3063 7.70846 15.3022 7.60077 15.2963 7.49385C15.8388 7.13846 16.2947 6.69462 16.6663 6.18385Z" fill="#8D9293"/>
</svg>
